# xmcd CD database file
#
# Track frame offsets:
#	150
#	11802
#	24877
#	34915
#	52582
#	62210
#	77575
#	90385
#	107587
#	123362
#	141240
#
# Disc length: 2110 seconds
#
# Revision: 2
# Processed by: cddbd v1.5.2PL0 Copyright (c) Steve Scherf et al.
# Submitted via: CDex 1.70beta2
#
DISCID=7f083c0b
DTITLE=Various Artist - A Picture Of Hank - The New Bluegrass Way
DYEAR=1995
DGENRE=Bluegrass
TTITLE0=Claire Lynch - I Can't Get You Off My Mind
TTITLE1=Ernie Thacker - Your Cheatin' Heart
TTITLE2=Terry Eldredg - I Don't Care (If Tomorrow Never Comes)
TTITLE3=Harley Allen - Cold, Cold Heart
TTITLE4=Gene Wooten - Why Don't You Love Me
TTITLE5=Kathy Chiavola - I'm So Lonesome I Could Cry
TTITLE6=Andrea Zonn - You're Gonna Change (Or I'm Gonna Leave)
TTITLE7=Don Rigsby - I Told A Lie To My Heart
TTITLE8=Ernie Sykes - My Heart Would Know
TTITLE9=Ronnie McCoury - (I Heard That) Lonesoime Whistle
TTITLE10=Ed Dye - Jambalaya (On The Bayou)
EXTD=YEAR: 1995
EXTT0=
EXTT1=
EXTT2=
EXTT3=
EXTT4=
EXTT5=
EXTT6=
EXTT7=
EXTT8=
EXTT9=
EXTT10=
PLAYORDER=
